<svg xmlns="http://www.w3.org/2000/svg" width="384" height="248" viewBox="0 0 384 248" fill="none"><g clip-path="url(#a)"><path fill="url(#b)" d="M0 160c0-8.837 7.163-16 16-16h16c8.837 0 16 7.163 16 16v16c0 8.837-7.163 16-16 16H16c-8.837 0-16-7.163-16-16z"/><path fill="url(#c)" d="M72 144c-8.837 0-16 7.163-16 16v16c0 8.837 7.163 16 16 16h16c8.837 0 16-7.163 16-16v-16c0-8.837-7.163-16-16-16z"/><path fill="url(#d)" d="M112 160c0-8.837 7.163-16 16-16h16c8.837 0 16 7.163 16 16v16c0 8.837-7.163 16-16 16h-16c-8.837 0-16-7.163-16-16z"/><path fill="url(#e)" d="M240 144c-8.837 0-16 7.163-16 16v16c0 8.837 7.163 16 16 16h16c8.837 0 16-7.163 16-16v-16c0-8.837-7.163-16-16-16z"/><path fill="url(#f)" d="M352 144c-8.837 0-16 7.163-16 16v16c0 8.837 7.163 16 16 16h16c8.837 0 16-7.163 16-16v-16c0-8.837-7.163-16-16-16z"/><path fill="url(#g)" d="M296 144c-8.837 0-16 7.163-16 16v16c0 8.837 7.163 16 16 16h16c8.837 0 16-7.163 16-16v-16c0-8.837-7.163-16-16-16z"/><path fill="url(#h)" d="M168 160c0-8.837 7.163-16 16-16h16c8.837 0 16 7.163 16 16v16c0 8.837-7.163 16-16 16h-16c-8.837 0-16-7.163-16-16z"/><path fill="url(#i)" d="M352 200c-8.837 0-16 7.163-16 16v16c0 8.837 7.163 16 16 16h16c8.837 0 16-7.163 16-16v-16c0-8.837-7.163-16-16-16z"/><path fill="url(#j)" d="M224 216c0-8.837 7.163-16 16-16h16c8.837 0 16 7.163 16 16v16c0 8.837-7.163 16-16 16h-16c-8.837 0-16-7.163-16-16z"/><path fill="url(#k)" d="M128 200c-8.837 0-16 7.163-16 16v16c0 8.837 7.163 16 16 16h16c8.837 0 16-7.163 16-16v-16c0-8.837-7.163-16-16-16z"/><path fill="url(#l)" d="M280 216c0-8.837 7.163-16 16-16h16c8.837 0 16 7.163 16 16v16c0 8.837-7.163 16-16 16h-16c-8.837 0-16-7.163-16-16z"/><path fill="url(#m)" d="M184 200c-8.837 0-16 7.163-16 16v16c0 8.837 7.163 16 16 16h16c8.837 0 16-7.163 16-16v-16c0-8.837-7.163-16-16-16z"/><path fill="url(#n)" d="M56 216c0-8.837 7.163-16 16-16h16c8.837 0 16 7.163 16 16v16c0 8.837-7.163 16-16 16H72c-8.837 0-16-7.163-16-16z"/><path fill="url(#o)" d="M16 200c-8.837 0-16 7.163-16 16v16c0 8.837 7.163 16 16 16h16c8.837 0 16-7.163 16-16v-16c0-8.837-7.163-16-16-16z"/><path fill="#96A2B1" d="M304 54h80v4h-80zM0 111h304v4H0z"/><rect width="48" height="48" y="32" fill="#22282F" rx="16"/><rect width="48" height="48" y="88" fill="#45515F" rx="16"/><rect width="48" height="48" x="56" y="32" fill="#22282F" rx="16"/><rect width="48" height="48" x="56" y="88" fill="#45515F" rx="16"/><rect width="48" height="48" x="112" y="32" fill="#22282F" rx="16"/><rect width="48" height="48" x="112" y="88" fill="#45515F" rx="16"/><rect width="48" height="48" x="168" y="32" fill="#22282F" rx="16"/><rect width="48" height="48" x="168" y="88" fill="#45515F" rx="16"/><rect width="48" height="48" x="224" y="32" fill="#22282F" rx="16"/><rect width="48" height="48" x="224" y="88" fill="#45515F" rx="16"/><rect width="48" height="48" x="280" y="32" fill="#E5EA11" rx="16"/><rect width="48" height="48" x="280" y="88" fill="#E5EA11" rx="16"/><rect width="48" height="48" x="336" y="32" fill="#45515F" rx="16"/><rect width="48" height="48" x="336" y="88" fill="#22282F" rx="16"/><path fill="#1B1E22" d="M293.408 63v-2.82l4.64-4.48c.546-.533.953-1.027 1.22-1.48.28-.453.42-.947.42-1.48 0-.587-.16-1.04-.48-1.36-.307-.32-.734-.48-1.28-.48-.6 0-1.074.18-1.42.54-.334.347-.5.833-.5 1.46h-3c0-.96.2-1.787.6-2.48a4.212 4.212 0 0 1 1.74-1.64c.746-.387 1.626-.58 2.64-.58.946 0 1.766.18 2.46.54.706.347 1.253.833 1.64 1.46.4.627.6 1.367.6 2.22 0 .947-.234 1.853-.7 2.72-.467.867-1.214 1.773-2.24 2.72l-2.64 2.44h5.74V63zm16.612.2c-.987 0-1.84-.18-2.56-.54a4.175 4.175 0 0 1-1.68-1.54c-.387-.667-.58-1.44-.58-2.32v-6.2c0-.88.193-1.647.58-2.3.4-.667.96-1.18 1.68-1.54.72-.373 1.567-.56 2.54-.56.987 0 1.833.187 2.54.56a3.87 3.87 0 0 1 1.66 1.54c.4.653.6 1.42.6 2.3v6.2c0 .88-.2 1.653-.6 2.32-.387.653-.94 1.167-1.66 1.54-.707.36-1.547.54-2.52.54m-.02-2.6c.627 0 1.113-.16 1.46-.48.36-.32.54-.76.54-1.32v-6.2c0-.56-.18-1-.54-1.32-.347-.32-.833-.48-1.46-.48s-1.12.16-1.48.48c-.347.32-.52.76-.52 1.32v6.2c0 .56.18 1 .54 1.32.36.32.847.48 1.46.48m0-3.52c-.413 0-.753-.133-1.02-.4-.253-.267-.38-.613-.38-1.04 0-.427.127-.767.38-1.02.267-.253.607-.38 1.02-.38.427 0 .767.127 1.02.38s.38.593.38 1.02c0 .427-.127.773-.38 1.04s-.593.4-1.02.4"/><path fill="#96A2B1" d="M349.408 63v-2.82l4.64-4.48c.546-.533.953-1.027 1.22-1.48.28-.453.42-.947.42-1.48 0-.587-.16-1.04-.48-1.36-.307-.32-.734-.48-1.28-.48-.6 0-1.074.18-1.42.54-.334.347-.5.833-.5 1.46h-3c0-.96.2-1.787.6-2.48a4.212 4.212 0 0 1 1.74-1.64c.746-.387 1.626-.58 2.64-.58.946 0 1.766.18 2.46.54.706.347 1.253.833 1.64 1.46.4.627.6 1.367.6 2.22 0 .947-.234 1.853-.7 2.72-.467.867-1.214 1.773-2.24 2.72l-2.64 2.44h5.74V63zm12.192 0v-2.6h3.68v-9.26l-3.72 2.76v-3.1l3.42-2.4h3.3v12h2.92V63z"/><path fill="#45515F" d="M296.807 20.12c-.616 0-1.152-.104-1.608-.312a2.441 2.441 0 0 1-1.056-.876c-.248-.376-.372-.82-.372-1.332h1.8c0 .296.112.532.336.708.232.168.544.252.936.252.376 0 .668-.084.876-.252.216-.168.324-.4.324-.696a.972.972 0 0 0-.24-.66c-.16-.184-.384-.308-.672-.372l-.888-.204c-.744-.176-1.324-.5-1.74-.972-.408-.48-.612-1.064-.612-1.752 0-.512.116-.956.348-1.332a2.37 2.37 0 0 1 1.008-.888c.432-.208.944-.312 1.536-.312.896 0 1.604.224 2.124.672.528.44.792 1.036.792 1.788h-1.8c0-.28-.1-.5-.3-.66-.192-.16-.472-.24-.84-.24-.344 0-.608.08-.792.24-.184.152-.276.372-.276.66 0 .256.072.476.216.66.152.176.364.296.636.36l.936.216c.776.176 1.364.496 1.764.96.4.456.6 1.04.6 1.752 0 .512-.128.964-.384 1.356a2.46 2.46 0 0 1-1.056.912c-.448.216-.98.324-1.596.324m6.343 0c-.664 0-1.192-.18-1.584-.54-.384-.36-.576-.848-.576-1.464 0-.664.228-1.172.684-1.524.464-.36 1.128-.54 1.992-.54h1.368v-.492a.753.753 0 0 0-.276-.612c-.176-.152-.416-.228-.72-.228-.28 0-.512.064-.696.192a.787.787 0 0 0-.336.528h-1.74c.072-.664.36-1.188.864-1.572.512-.392 1.168-.588 1.968-.588.84 0 1.504.208 1.992.624.496.408.744.96.744 1.656V20h-1.74v-1.08h-.288l.3-.42c0 .496-.18.892-.54 1.188-.352.288-.824.432-1.416.432m.672-1.32c.352 0 .64-.092.864-.276a.921.921 0 0 0 .348-.744v-.708h-1.332c-.272 0-.492.08-.66.24-.168.152-.252.356-.252.612 0 .272.092.488.276.648.184.152.436.228.756.228m8.096 1.2c-.672 0-1.2-.192-1.584-.576-.384-.384-.576-.912-.576-1.584v-2.82h-1.74V13.4h1.74v-1.86h1.8v1.86h2.46v1.62h-2.46v2.82c0 .36.18.54.54.54h1.8V20zm40.889.12c-.616 0-1.152-.104-1.608-.312a2.441 2.441 0 0 1-1.056-.876c-.248-.376-.372-.82-.372-1.332h1.8c0 .296.112.532.336.708.232.168.544.252.936.252.376 0 .668-.084.876-.252.216-.168.324-.4.324-.696a.972.972 0 0 0-.24-.66c-.16-.184-.384-.308-.672-.372l-.888-.204c-.744-.176-1.324-.5-1.74-.972-.408-.48-.612-1.064-.612-1.752 0-.512.116-.956.348-1.332a2.37 2.37 0 0 1 1.008-.888c.432-.208.944-.312 1.536-.312.896 0 1.604.224 2.124.672.528.44.792 1.036.792 1.788h-1.8c0-.28-.1-.5-.3-.66-.192-.16-.472-.24-.84-.24-.344 0-.608.08-.792.24-.184.152-.276.372-.276.66 0 .256.072.476.216.66.152.176.364.296.636.36l.936.216c.776.176 1.364.496 1.764.96.4.456.6 1.04.6 1.752 0 .512-.128.964-.384 1.356a2.46 2.46 0 0 1-1.056.912c-.448.216-.98.324-1.596.324m7.195 0c-.888 0-1.584-.24-2.088-.72-.496-.48-.744-1.136-.744-1.968V13.4h1.8v4.02c0 .368.088.652.264.852.176.192.432.288.768.288.328 0 .58-.096.756-.288.184-.2.276-.484.276-.852V13.4h1.8v4.032c0 .84-.252 1.5-.756 1.98-.504.472-1.196.708-2.076.708m4.388-.12v-6.6h1.74v1.26h.528l-.528.42c0-.56.16-1 .48-1.32.32-.32.752-.48 1.296-.48.64 0 1.152.224 1.536.672.392.448.588 1.044.588 1.788V20h-1.8v-4.08c0-.344-.092-.608-.276-.792-.176-.192-.428-.288-.756-.288-.32 0-.568.096-.744.288-.176.184-.264.448-.264.792V20zm-14.982 99v-2.82l4.64-4.48c.546-.533.953-1.027 1.22-1.48.28-.453.42-.947.42-1.48 0-.587-.16-1.04-.48-1.36-.307-.32-.734-.48-1.28-.48-.6 0-1.074.18-1.42.54-.334.347-.5.833-.5 1.46h-3c0-.96.2-1.787.6-2.48a4.212 4.212 0 0 1 1.74-1.64c.746-.387 1.626-.58 2.64-.58.946 0 1.766.18 2.46.54.706.347 1.253.833 1.64 1.46.4.627.6 1.367.6 2.22 0 .947-.234 1.853-.7 2.72-.467.867-1.214 1.773-2.24 2.72l-2.64 2.44h5.74v2.7zm16.592.2c-1.013 0-1.893-.167-2.64-.5-.733-.347-1.307-.82-1.72-1.42-.4-.613-.6-1.32-.6-2.12 0-.907.253-1.673.76-2.3.52-.627 1.247-1.14 2.18-1.54l2.44-1.06c.413-.187.74-.447.98-.78.24-.347.36-.733.36-1.16 0-.48-.16-.867-.48-1.16-.307-.293-.733-.44-1.28-.44s-.987.147-1.32.44c-.32.293-.48.68-.48 1.16 0 .413.127.793.38 1.14a2.55 2.55 0 0 0 1 .78l2.44 1.08c1.027.453 1.773 1 2.24 1.64.467.627.7 1.36.7 2.2 0 1.24-.447 2.227-1.34 2.96-.893.72-2.1 1.08-3.62 1.08m0-2.52c.6 0 1.08-.167 1.44-.5.373-.333.56-.753.56-1.26 0-.4-.133-.793-.4-1.18a2.419 2.419 0 0 0-1.04-.86l-2.72-1.22c-.8-.36-1.433-.833-1.9-1.42-.467-.6-.7-1.307-.7-2.12 0-.733.193-1.393.58-1.98.387-.6.933-1.073 1.64-1.42.72-.347 1.567-.52 2.54-.52.973 0 1.807.173 2.5.52.707.347 1.253.82 1.64 1.42.387.587.58 1.247.58 1.98 0 .853-.227 1.573-.68 2.16-.453.573-1.073 1.033-1.86 1.38l-2.74 1.22a2.419 2.419 0 0 0-1.04.86c-.267.373-.4.76-.4 1.16 0 .52.18.947.54 1.28.373.333.86.5 1.46.5"/><path fill="#96A2B1" d="M237.408 119v-2.82l4.64-4.48c.546-.533.953-1.027 1.22-1.48.28-.453.42-.947.42-1.48 0-.587-.16-1.04-.48-1.36-.307-.32-.734-.48-1.28-.48-.6 0-1.074.18-1.42.54-.334.347-.5.833-.5 1.46h-3c0-.96.2-1.787.6-2.48a4.212 4.212 0 0 1 1.74-1.64c.746-.387 1.626-.58 2.64-.58.946 0 1.766.18 2.46.54.706.347 1.253.833 1.64 1.46.4.627.6 1.367.6 2.22 0 .947-.234 1.853-.7 2.72-.467.867-1.214 1.773-2.24 2.72l-2.64 2.44h5.74v2.7zm16.592.2c-1.013 0-1.907-.207-2.68-.62a4.574 4.574 0 0 1-1.78-1.78c-.427-.76-.64-1.64-.64-2.64 0-.667.127-1.393.38-2.18.253-.8.587-1.54 1-2.22l3.28-5.36h3.34l-4.44 6.92.14.08a2.933 2.933 0 0 1 1.12-.98 3.52 3.52 0 0 1 1.56-.34c.76 0 1.427.187 2 .56.573.36 1.02.873 1.34 1.54.32.653.48 1.42.48 2.3 0 .947-.213 1.773-.64 2.48a4.457 4.457 0 0 1-1.78 1.66c-.76.387-1.653.58-2.68.58m0-2.5c.653 0 1.18-.2 1.58-.6.4-.4.6-.927.6-1.58 0-.667-.2-1.2-.6-1.6-.4-.413-.927-.62-1.58-.62s-1.18.207-1.58.62c-.4.4-.6.933-.6 1.6 0 .653.2 1.18.6 1.58.4.4.927.6 1.58.6"/><path fill="#45515F" d="M181.608 63v-2.6h3.68v-9.26l-3.72 2.76v-3.1l3.42-2.4h3.3v12h2.92V63zm16.392.2c-1.013 0-1.893-.167-2.64-.5-.733-.347-1.307-.82-1.72-1.42-.4-.613-.6-1.32-.6-2.12 0-.907.253-1.673.76-2.3.52-.627 1.247-1.14 2.18-1.54l2.44-1.06c.413-.187.74-.447.98-.78.24-.347.36-.733.36-1.16 0-.48-.16-.867-.48-1.16-.307-.293-.733-.44-1.28-.44s-.987.147-1.32.44c-.32.293-.48.68-.48 1.16 0 .413.127.793.38 1.14a2.55 2.55 0 0 0 1 .78l2.44 1.08c1.027.453 1.773 1 2.24 1.64.467.627.7 1.36.7 2.2 0 1.24-.447 2.227-1.34 2.96-.893.72-2.1 1.08-3.62 1.08m0-2.52c.6 0 1.08-.167 1.44-.5.373-.333.56-.753.56-1.26 0-.4-.133-.793-.4-1.18a2.419 2.419 0 0 0-1.04-.86l-2.72-1.22c-.8-.36-1.433-.833-1.9-1.42-.467-.6-.7-1.307-.7-2.12 0-.733.193-1.393.58-1.98.387-.6.933-1.073 1.64-1.42.72-.347 1.567-.52 2.54-.52.973 0 1.807.173 2.5.52.707.347 1.253.82 1.64 1.42.387.587.58 1.247.58 1.98 0 .853-.227 1.573-.68 2.16-.453.573-1.073 1.033-1.86 1.38l-2.74 1.22a2.419 2.419 0 0 0-1.04.86c-.267.373-.4.76-.4 1.16 0 .52.18.947.54 1.28.373.333.86.5 1.46.5M237.608 63v-2.6h3.68v-9.26l-3.72 2.76v-3.1l3.42-2.4h3.3v12h2.92V63zm13.492 0 4.44-6.92-.14-.08a2.891 2.891 0 0 1-1.14.98c-.453.227-.967.34-1.54.34-.76 0-1.427-.18-2-.54a3.777 3.777 0 0 1-1.34-1.54c-.32-.667-.48-1.44-.48-2.32 0-.947.213-1.773.64-2.48a4.322 4.322 0 0 1 1.78-1.64c.773-.4 1.667-.6 2.68-.6 1.027 0 1.92.213 2.68.64.76.413 1.353 1 1.78 1.76.427.747.64 1.627.64 2.64 0 .653-.127 1.38-.38 2.18-.24.8-.573 1.54-1 2.22L254.44 63zm2.9-7.9c.653 0 1.18-.2 1.58-.6.4-.413.6-.953.6-1.62 0-.653-.2-1.18-.6-1.58-.4-.4-.927-.6-1.58-.6s-1.18.2-1.58.6c-.4.4-.6.927-.6 1.58 0 .667.2 1.207.6 1.62.4.4.927.6 1.58.6M125.608 63v-2.6h3.68v-9.26l-3.72 2.76v-3.1l3.42-2.4h3.3v12h2.92V63zm13.072 0 5.3-11.8h-4.08v2.1h-3v-4.9H147v2.8L141.88 63z"/><path fill="#1B1E22" d="M293.408 119v-2.82l4.64-4.48c.546-.533.953-1.027 1.22-1.48.28-.453.42-.947.42-1.48 0-.587-.16-1.04-.48-1.36-.307-.32-.734-.48-1.28-.48-.6 0-1.074.18-1.42.54-.334.347-.5.833-.5 1.46h-3c0-.96.2-1.787.6-2.48a4.212 4.212 0 0 1 1.74-1.64c.746-.387 1.626-.58 2.64-.58.946 0 1.766.18 2.46.54.706.347 1.253.833 1.64 1.46.4.627.6 1.367.6 2.22 0 .947-.234 1.853-.7 2.72-.467.867-1.214 1.773-2.24 2.72l-2.64 2.44h5.74v2.7zm13.272 0 5.3-11.8h-4.08v2.1h-3v-4.9H315v2.8l-5.12 11.8z"/><path fill="#45515F" d="M69.608 63v-2.6h3.68v-9.26l-3.72 2.76v-3.1l3.42-2.4h3.3v12h2.92V63zM86 63.2c-1.013 0-1.907-.207-2.68-.62a4.57 4.57 0 0 1-1.78-1.78c-.427-.76-.64-1.64-.64-2.64 0-.667.127-1.393.38-2.18.253-.8.587-1.54 1-2.22l3.28-5.36h3.34l-4.44 6.92.14.08a2.933 2.933 0 0 1 1.12-.98 3.52 3.52 0 0 1 1.56-.34c.76 0 1.427.187 2 .56.573.36 1.02.873 1.34 1.54.32.653.48 1.42.48 2.3 0 .947-.213 1.773-.64 2.48a4.457 4.457 0 0 1-1.78 1.66c-.76.387-1.653.58-2.68.58m0-2.5c.653 0 1.18-.2 1.58-.6.4-.4.6-.927.6-1.58 0-.667-.2-1.2-.6-1.6-.4-.413-.927-.62-1.58-.62s-1.18.207-1.58.62c-.4.4-.6.933-.6 1.6 0 .653.2 1.18.6 1.58.4.4.927.6 1.58.6M13.608 63v-2.6h3.68v-9.26l-3.72 2.76v-3.1l3.42-2.4h3.3v12h2.92V63zm16.372.2c-1.453 0-2.607-.36-3.46-1.08-.853-.72-1.293-1.693-1.32-2.92h3c.027.44.193.787.5 1.04.307.24.733.36 1.28.36.587 0 1.033-.147 1.34-.44.32-.307.48-.727.48-1.26v-1.42c0-.547-.153-.96-.46-1.24-.307-.293-.76-.44-1.36-.44-.36 0-.673.053-.94.16-.253.093-.453.24-.6.44h-2.9l.1-8h8.62v2.7h-5.8l-.04 3.8h.62l-.64.5c0-.613.233-1.093.7-1.44.48-.36 1.127-.54 1.94-.54 1.187 0 2.107.36 2.76 1.08.667.707 1 1.7 1 2.98v1.42c0 1.333-.427 2.387-1.28 3.16-.853.76-2.033 1.14-3.54 1.14"/><path fill="#96A2B1" d="M181.408 119v-2.82l4.64-4.48c.546-.533.953-1.027 1.22-1.48.28-.453.42-.947.42-1.48 0-.587-.16-1.04-.48-1.36-.307-.32-.734-.48-1.28-.48-.6 0-1.074.18-1.42.54-.334.347-.5.833-.5 1.46h-3c0-.96.2-1.787.6-2.48a4.212 4.212 0 0 1 1.74-1.64c.746-.387 1.626-.58 2.64-.58.946 0 1.766.18 2.46.54.706.347 1.253.833 1.64 1.46.4.627.6 1.367.6 2.22 0 .947-.234 1.853-.7 2.72-.467.867-1.214 1.773-2.24 2.72l-2.64 2.44h5.74v2.7zm16.572.2c-1.453 0-2.607-.36-3.46-1.08-.853-.72-1.293-1.693-1.32-2.92h3c.027.44.193.787.5 1.04.307.24.733.36 1.28.36.587 0 1.033-.147 1.34-.44.32-.307.48-.727.48-1.26v-1.42c0-.547-.153-.96-.46-1.24-.307-.293-.76-.44-1.36-.44-.36 0-.673.053-.94.16-.253.093-.453.24-.6.44h-2.9l.1-8h8.62v2.7h-5.8l-.04 3.8h.62l-.64.5c0-.613.233-1.093.7-1.44.48-.36 1.127-.54 1.94-.54 1.187 0 2.107.36 2.76 1.08.667.707 1 1.7 1 2.98v1.42c0 1.333-.427 2.387-1.28 3.16-.853.76-2.033 1.14-3.54 1.14"/><path fill="#45515F" d="M183.907 20v-7.08h-2.22v-1.68h6.24v1.68h-2.22V20zm5.287 0v-8.76h1.8v2.16l-.06 1.26h.528l-.528.42c0-.56.16-1 .48-1.32.32-.32.752-.48 1.296-.48.64 0 1.152.224 1.536.672.392.448.588 1.044.588 1.788V20h-1.8v-4.08c0-.344-.092-.608-.276-.792-.176-.192-.428-.288-.756-.288-.32 0-.568.096-.744.288-.176.184-.264.448-.264.792V20zm10.004.12c-.888 0-1.584-.24-2.088-.72-.496-.48-.744-1.136-.744-1.968V13.4h1.8v4.02c0 .368.088.652.264.852.176.192.432.288.768.288.328 0 .58-.096.756-.288.184-.2.276-.484.276-.852V13.4h1.8v4.032c0 .84-.252 1.5-.756 1.98-.504.472-1.196.708-2.076.708m38.849-.12v-8.76h5.64v1.68h-3.864v1.944h3.552v1.68h-3.528V20zm7.339 0v-6.6h1.68v1.26h.456l-.516.768c0-.712.164-1.248.492-1.608.328-.36.808-.54 1.44-.54.728 0 1.292.22 1.692.66.408.44.612 1.06.612 1.86v.54h-1.92v-.42c0-.36-.1-.64-.3-.84-.192-.2-.452-.3-.78-.3-.344 0-.608.1-.792.3-.176.2-.264.48-.264.84V20zm7.052 0v-1.632h2.28V15.02h-1.98V13.4h3.66v4.968h1.92V20zm3-7.644c-.328 0-.592-.084-.792-.252-.192-.168-.288-.396-.288-.684 0-.288.096-.516.288-.684.2-.168.464-.252.792-.252s.588.084.78.252c.2.168.3.396.3.684 0 .288-.1.516-.3.684-.192.168-.452.252-.78.252"/><path fill="#96A2B1" d="M125.408 119v-2.82l4.64-4.48c.546-.533.953-1.027 1.22-1.48.28-.453.42-.947.42-1.48 0-.587-.16-1.04-.48-1.36-.307-.32-.734-.48-1.28-.48-.6 0-1.074.18-1.42.54-.334.347-.5.833-.5 1.46h-3c0-.96.2-1.787.6-2.48a4.212 4.212 0 0 1 1.74-1.64c.746-.387 1.626-.58 2.64-.58.946 0 1.766.18 2.46.54.706.347 1.253.833 1.64 1.46.4.627.6 1.367.6 2.22 0 .947-.234 1.853-.7 2.72-.467.867-1.214 1.773-2.24 2.72l-2.64 2.44h5.74v2.7zm18.092 0v-2.68h-6.4v-4.18l5.48-7.74h3.4l-6.08 8.58v.74h3.6v-3.12h3v8.4z"/><path fill="#45515F" d="m126.143 20-.816-8.76h1.476l.444 5.856c.008.112.016.272.024.48l.024.636c.016.216.024.412.024.588.016-.176.032-.372.048-.588.024-.224.048-.436.072-.636.024-.208.04-.368.048-.48l.648-5.856h1.368l.624 5.856c.016.112.032.272.048.48.024.2.048.412.072.636.032.216.056.412.072.588l.024-.588.024-.636c.008-.208.016-.368.024-.48l.408-5.856h1.488l-.876 8.76h-1.872l-.588-5.82a12.773 12.773 0 0 1-.048-.528l-.048-.696c-.016-.24-.032-.452-.048-.636-.008.184-.02.396-.036.636l-.048.696c-.016.216-.032.392-.048.528l-.648 5.82zm9.871.12c-.584 0-1.096-.108-1.536-.324a2.505 2.505 0 0 1-1.008-.924c-.232-.4-.348-.864-.348-1.392v-1.56c0-.528.116-.988.348-1.38.24-.4.576-.708 1.008-.924.44-.224.952-.336 1.536-.336.584 0 1.088.112 1.512.336.432.216.764.524.996.924.24.392.36.852.36 1.38v1.2h-4.044v.36c0 .416.1.732.3.948.2.208.5.312.9.312.28 0 .504-.048.672-.144a.698.698 0 0 0 .348-.396h1.764c-.144.576-.472 1.04-.984 1.392-.504.352-1.112.528-1.824.528m1.152-3.924v-.3c0-.408-.096-.72-.288-.936-.184-.216-.472-.324-.864-.324s-.688.112-.888.336c-.192.224-.288.54-.288.948v.18l2.448-.024zm5.348 3.924c-.664 0-1.196-.232-1.596-.696-.4-.464-.6-1.092-.6-1.884v-1.68c0-.784.2-1.408.6-1.872.4-.472.932-.708 1.596-.708.544 0 .972.16 1.284.48.312.312.468.752.468 1.32l-.42-.42h.42l-.06-1.62v-1.8h1.8V20h-1.74v-1.26h-.42l.42-.42c0 .568-.156 1.012-.468 1.332-.312.312-.74.468-1.284.468m.648-1.56c.328 0 .584-.092.768-.276.184-.192.276-.46.276-.804v-1.56c0-.344-.092-.608-.276-.792-.184-.192-.44-.288-.768-.288-.336 0-.596.096-.78.288-.176.184-.264.448-.264.792v1.56c0 .344.088.612.264.804.184.184.444.276.78.276"/><path fill="#96A2B1" d="M69.408 119v-2.82l4.64-4.48c.546-.533.953-1.027 1.22-1.48.28-.453.42-.947.42-1.48 0-.587-.16-1.04-.48-1.36-.307-.32-.733-.48-1.28-.48-.6 0-1.073.18-1.42.54-.334.347-.5.833-.5 1.46h-3c0-.96.2-1.787.6-2.48a4.215 4.215 0 0 1 1.74-1.64c.746-.387 1.627-.58 2.64-.58.947 0 1.766.18 2.46.54.707.347 1.253.833 1.64 1.46.4.627.6 1.367.6 2.22a5.66 5.66 0 0 1-.7 2.72c-.467.867-1.213 1.773-2.24 2.72l-2.64 2.44h5.74v2.7zm16.512.2c-1 0-1.867-.167-2.6-.5-.72-.347-1.28-.833-1.68-1.46-.4-.64-.6-1.387-.6-2.24h3c0 .533.16.953.48 1.26.333.293.8.44 1.4.44.613 0 1.08-.147 1.4-.44.32-.293.48-.713.48-1.26v-1.2c0-.547-.167-.967-.5-1.26-.32-.307-.78-.46-1.38-.46H84.2v-2.58l2.94-2.6h-5.4v-2.5h8.46v2.58l-4.28 3.78v-1.22c1.507 0 2.693.38 3.56 1.14.88.76 1.32 1.793 1.32 3.1V115c0 .853-.2 1.6-.6 2.24-.387.627-.947 1.113-1.68 1.46-.733.333-1.6.5-2.6.5"/><path fill="#45515F" d="M71.907 20v-7.08h-2.22v-1.68h6.24v1.68h-2.22V20zm8.095.12c-.888 0-1.584-.24-2.088-.72-.496-.48-.744-1.136-.744-1.968V13.4h1.8v4.02c0 .368.088.652.264.852.176.192.432.288.768.288.328 0 .58-.096.756-.288.184-.2.276-.484.276-.852V13.4h1.8v4.032c0 .84-.252 1.5-.756 1.98-.504.472-1.196.708-2.076.708m7.208 0c-.584 0-1.096-.108-1.536-.324a2.505 2.505 0 0 1-1.008-.924c-.232-.4-.348-.864-.348-1.392v-1.56c0-.528.116-.988.348-1.38.24-.4.576-.708 1.008-.924.44-.224.952-.336 1.536-.336.584 0 1.088.112 1.512.336.432.216.764.524.996.924.24.392.36.852.36 1.38v1.2h-4.044v.36c0 .416.1.732.3.948.2.208.5.312.9.312.28 0 .504-.048.672-.144a.698.698 0 0 0 .348-.396h1.764c-.144.576-.472 1.04-.984 1.392-.504.352-1.112.528-1.824.528m1.152-3.924v-.3c0-.408-.096-.72-.288-.936-.184-.216-.472-.324-.864-.324s-.688.112-.888.336c-.192.224-.288.54-.288.948v.18l2.448-.024z"/><path fill="#96A2B1" d="M13.408 119v-2.82l4.64-4.48c.547-.533.953-1.027 1.22-1.48.28-.453.42-.947.42-1.48 0-.587-.16-1.04-.48-1.36-.307-.32-.733-.48-1.28-.48-.6 0-1.073.18-1.42.54-.334.347-.5.833-.5 1.46h-3c0-.96.2-1.787.6-2.48a4.215 4.215 0 0 1 1.74-1.64c.746-.387 1.626-.58 2.64-.58.947 0 1.767.18 2.46.54.706.347 1.253.833 1.64 1.46.4.627.6 1.367.6 2.22a5.66 5.66 0 0 1-.7 2.72c-.467.867-1.213 1.773-2.24 2.72l-2.64 2.44h5.74v2.7zm11.992 0v-2.82l4.64-4.48c.547-.533.953-1.027 1.22-1.48.28-.453.42-.947.42-1.48 0-.587-.16-1.04-.48-1.36-.307-.32-.733-.48-1.28-.48-.6 0-1.073.18-1.42.54-.333.347-.5.833-.5 1.46h-3c0-.96.2-1.787.6-2.48a4.215 4.215 0 0 1 1.74-1.64c.747-.387 1.627-.58 2.64-.58.947 0 1.767.18 2.46.54.707.347 1.253.833 1.64 1.46.4.627.6 1.367.6 2.22a5.66 5.66 0 0 1-.7 2.72c-.467.867-1.213 1.773-2.24 2.72l-2.64 2.44h5.74v2.7z"/><path fill="#45515F" d="M13.711 20v-8.76h2.028l.804 2.76c.088.288.152.54.192.756.048.216.076.368.084.456.008-.088.032-.24.072-.456.048-.216.112-.468.192-.756l.792-2.76h2.028V20h-1.644v-2.4c0-.44.008-.9.024-1.38.024-.488.052-.972.084-1.452.032-.48.068-.928.108-1.344.04-.424.076-.792.108-1.104l-1.008 3.96h-1.524l-1.056-3.96c.04.296.08.652.12 1.068.04.408.076.852.108 1.332.04.472.072.956.096 1.452.024.496.036.972.036 1.428V20zm10.291.12c-.584 0-1.092-.108-1.524-.324a2.505 2.505 0 0 1-1.008-.924c-.232-.4-.348-.864-.348-1.392v-1.56c0-.528.116-.988.348-1.38.24-.4.576-.708 1.008-.924.432-.224.94-.336 1.524-.336.592 0 1.1.112 1.524.336.432.216.764.524.996.924.24.392.36.852.36 1.38v1.56c0 .528-.12.992-.36 1.392-.232.392-.564.7-.996.924-.424.216-.932.324-1.524.324m0-1.56c.352 0 .62-.092.804-.276.184-.192.276-.46.276-.804v-1.56c0-.352-.092-.62-.276-.804-.184-.184-.452-.276-.804-.276-.344 0-.612.092-.804.276-.184.184-.276.452-.276.804v1.56c0 .344.092.612.276.804.192.184.46.276.804.276M28.39 20v-6.6h1.74v1.26h.528l-.528.42c0-.56.16-1 .48-1.32.32-.32.752-.48 1.296-.48.64 0 1.152.224 1.536.672.392.448.588 1.044.588 1.788V20h-1.8v-4.08c0-.344-.092-.608-.276-.792-.176-.192-.428-.288-.756-.288-.32 0-.568.096-.744.288-.176.184-.264.448-.264.792V20z"/><path fill="#45515F" d="M187.404 175v-2.82l4.64-4.48c.547-.533.953-1.027 1.22-1.48.28-.453.42-.947.42-1.48 0-.587-.16-1.04-.48-1.36-.307-.32-.733-.48-1.28-.48-.6 0-1.073.18-1.42.54-.333.347-.5.833-.5 1.46h-3c0-.96.2-1.787.6-2.48a4.212 4.212 0 0 1 1.74-1.64c.747-.387 1.627-.58 2.64-.58.947 0 1.767.18 2.46.54.707.347 1.253.833 1.64 1.46.4.627.6 1.367.6 2.22 0 .947-.233 1.853-.7 2.72-.467.867-1.213 1.773-2.24 2.72l-2.64 2.44h5.74v2.7zm60.52.2c-1 0-1.867-.167-2.6-.5-.72-.347-1.28-.833-1.68-1.46-.4-.64-.6-1.387-.6-2.24h3c0 .533.16.953.48 1.26.333.293.8.44 1.4.44.613 0 1.08-.147 1.4-.44.32-.293.48-.713.48-1.26v-1.2c0-.547-.167-.967-.5-1.26-.32-.307-.78-.46-1.38-.46h-1.72v-2.58l2.94-2.6h-5.4v-2.5h8.46v2.58l-4.28 3.78v-1.22c1.507 0 2.693.38 3.56 1.14.88.76 1.32 1.793 1.32 3.1V171c0 .853-.2 1.6-.6 2.24-.387.627-.947 1.113-1.68 1.46-.733.333-1.6.5-2.6.5m57.58-.2v-2.68h-6.4v-4.18l5.48-7.74h3.4l-6.08 8.58v.74h3.6v-3.12h3v8.4zm54.48.2c-1.453 0-2.607-.36-3.46-1.08-.853-.72-1.293-1.693-1.32-2.92h3c.027.44.193.787.5 1.04.307.24.733.36 1.28.36.587 0 1.033-.147 1.34-.44.32-.307.48-.727.48-1.26v-1.42c0-.547-.153-.96-.46-1.24-.307-.293-.76-.44-1.36-.44-.36 0-.673.053-.94.16-.253.093-.453.24-.6.44h-2.9l.1-8h8.62v2.7h-5.8l-.04 3.8h.62l-.64.5c0-.613.233-1.093.7-1.44.48-.36 1.127-.54 1.94-.54 1.187 0 2.107.36 2.76 1.08.667.707 1 1.7 1 2.98v1.42c0 1.333-.427 2.387-1.28 3.16-.853.76-2.033 1.14-3.54 1.14m-228.38-.2v-2.6h3.68v-9.26l-3.72 2.76v-3.1l3.42-2.4h3.3v12h2.92v2.6zm-57.676.2c-1 0-1.867-.167-2.6-.5-.72-.347-1.28-.833-1.68-1.46-.4-.64-.6-1.387-.6-2.24h3c0 .533.16.953.48 1.26.333.293.8.44 1.4.44.613 0 1.08-.147 1.4-.44.32-.293.48-.713.48-1.26v-1.2c0-.547-.167-.967-.5-1.26-.32-.307-.78-.46-1.38-.46h-1.72v-2.58l2.94-2.6h-5.4v-2.5h8.46v2.58l-4.28 3.78v-1.22c1.507 0 2.693.38 3.56 1.14.88.76 1.32 1.793 1.32 3.1V171c0 .853-.2 1.6-.6 2.24-.387.627-.947 1.113-1.68 1.46-.734.333-1.6.5-2.6.5m12.092 0c-.987 0-1.84-.18-2.56-.54a4.175 4.175 0 0 1-1.68-1.54c-.387-.667-.58-1.44-.58-2.32v-6.2c0-.88.193-1.647.58-2.3.4-.667.96-1.18 1.68-1.54.72-.373 1.567-.56 2.54-.56.987 0 1.833.187 2.54.56a3.87 3.87 0 0 1 1.66 1.54c.4.653.6 1.42.6 2.3v6.2c0 .88-.2 1.653-.6 2.32-.387.653-.94 1.167-1.66 1.54-.707.36-1.547.54-2.52.54m-.02-2.6c.627 0 1.113-.16 1.46-.48.36-.32.54-.76.54-1.32v-6.2c0-.56-.18-1-.54-1.32-.347-.32-.833-.48-1.46-.48s-1.12.16-1.48.48c-.347.32-.52.76-.52 1.32v6.2c0 .56.18 1 .54 1.32.36.32.847.48 1.46.48m0-3.52c-.413 0-.753-.133-1.02-.4-.253-.267-.38-.613-.38-1.04 0-.427.127-.767.38-1.02.267-.253.607-.38 1.02-.38.427 0 .767.127 1.02.38s.38.593.38 1.02c0 .427-.127.773-.38 1.04s-.593.4-1.02.4M13.408 175v-2.82l4.64-4.48c.547-.533.953-1.027 1.22-1.48.28-.453.42-.947.42-1.48 0-.587-.16-1.04-.48-1.36-.307-.32-.733-.48-1.28-.48-.6 0-1.073.18-1.42.54-.334.347-.5.833-.5 1.46h-3c0-.96.2-1.787.6-2.48a4.215 4.215 0 0 1 1.74-1.64c.746-.387 1.626-.58 2.64-.58.947 0 1.767.18 2.46.54.706.347 1.253.833 1.64 1.46.4.627.6 1.367.6 2.22a5.66 5.66 0 0 1-.7 2.72c-.467.867-1.213 1.773-2.24 2.72l-2.64 2.44h5.74v2.7zm13.692 0 4.44-6.92-.14-.08a2.896 2.896 0 0 1-1.14.98c-.453.227-.967.34-1.54.34-.76 0-1.427-.18-2-.54a3.775 3.775 0 0 1-1.34-1.54c-.32-.667-.48-1.44-.48-2.32 0-.947.213-1.773.64-2.48a4.32 4.32 0 0 1 1.78-1.64c.773-.4 1.667-.6 2.68-.6 1.027 0 1.92.213 2.68.64.76.413 1.353 1 1.78 1.76.427.747.64 1.627.64 2.64 0 .653-.127 1.38-.38 2.18-.24.8-.573 1.54-1 2.22L30.44 175zm2.9-7.9c.653 0 1.18-.2 1.58-.6.4-.413.6-.953.6-1.62 0-.653-.2-1.18-.6-1.58-.4-.4-.927-.6-1.58-.6s-1.18.2-1.58.6c-.4.4-.6.927-.6 1.58 0 .667.2 1.207.6 1.62.4.4.927.6 1.58.6" opacity=".16"/></g><defs><linearGradient id="b" x1="192" x2="192" y1="144" y2="248" gradientUnits="userSpaceOnUse"><stop stop-color="#22282F"/><stop offset="1" stop-color="#1B1E22" stop-opacity="0"/></linearGradient><linearGradient id="c" x1="192" x2="192" y1="144" y2="248" gradientUnits="userSpaceOnUse"><stop stop-color="#22282F"/><stop offset="1" stop-color="#1B1E22" stop-opacity="0"/></linearGradient><linearGradient id="d" x1="192" x2="192" y1="144" y2="248" gradientUnits="userSpaceOnUse"><stop stop-color="#22282F"/><stop offset="1" stop-color="#1B1E22" stop-opacity="0"/></linearGradient><linearGradient id="e" x1="192" x2="192" y1="144" y2="248" gradientUnits="userSpaceOnUse"><stop stop-color="#22282F"/><stop offset="1" stop-color="#1B1E22" stop-opacity="0"/></linearGradient><linearGradient id="f" x1="192" x2="192" y1="144" y2="248" gradientUnits="userSpaceOnUse"><stop stop-color="#22282F"/><stop offset="1" stop-color="#1B1E22" stop-opacity="0"/></linearGradient><linearGradient id="g" x1="192" x2="192" y1="144" y2="248" gradientUnits="userSpaceOnUse"><stop stop-color="#22282F"/><stop offset="1" stop-color="#1B1E22" stop-opacity="0"/></linearGradient><linearGradient id="h" x1="192" x2="192" y1="144" y2="248" gradientUnits="userSpaceOnUse"><stop stop-color="#22282F"/><stop offset="1" stop-color="#1B1E22" stop-opacity="0"/></linearGradient><linearGradient id="i" x1="192" x2="192" y1="144" y2="248" gradientUnits="userSpaceOnUse"><stop stop-color="#22282F"/><stop offset="1" stop-color="#1B1E22" stop-opacity="0"/></linearGradient><linearGradient id="j" x1="192" x2="192" y1="144" y2="248" gradientUnits="userSpaceOnUse"><stop stop-color="#22282F"/><stop offset="1" stop-color="#1B1E22" stop-opacity="0"/></linearGradient><linearGradient id="k" x1="192" x2="192" y1="144" y2="248" gradientUnits="userSpaceOnUse"><stop stop-color="#22282F"/><stop offset="1" stop-color="#1B1E22" stop-opacity="0"/></linearGradient><linearGradient id="l" x1="192" x2="192" y1="144" y2="248" gradientUnits="userSpaceOnUse"><stop stop-color="#22282F"/><stop offset="1" stop-color="#1B1E22" stop-opacity="0"/></linearGradient><linearGradient id="m" x1="192" x2="192" y1="144" y2="248" gradientUnits="userSpaceOnUse"><stop stop-color="#22282F"/><stop offset="1" stop-color="#1B1E22" stop-opacity="0"/></linearGradient><linearGradient id="n" x1="192" x2="192" y1="144" y2="248" gradientUnits="userSpaceOnUse"><stop stop-color="#22282F"/><stop offset="1" stop-color="#1B1E22" stop-opacity="0"/></linearGradient><linearGradient id="o" x1="192" x2="192" y1="144" y2="248" gradientUnits="userSpaceOnUse"><stop stop-color="#22282F"/><stop offset="1" stop-color="#1B1E22" stop-opacity="0"/></linearGradient><clipPath id="a"><path fill="#fff" d="M0 0h384v248H0z"/></clipPath></defs></svg>